M48
; DRILL file {KiCad 7.0.1} date Fri Feb 28 04:26:54 2025
; FORMAT={-:-/ absolute / metric / decimal}
; #@! TF.CreationDate,2025-02-28T04:26:54+09:00
; #@! TF.GenerationSoftware,Kicad,Pcbnew,7.0.1
; #@! TF.FileFunction,Plated,1,2,PTH
FMAT,2
METRIC
; #@! TA.AperFunction,Plated,PTH,ViaDrill
T1C0.300
; #@! TA.AperFunction,Plated,PTH,ComponentDrill
T2C0.300
; #@! TA.AperFunction,Plated,PTH,ViaDrill
T3C0.400
; #@! TA.AperFunction,Plated,PTH,ComponentDrill
T4C0.400
; #@! TA.AperFunction,Plated,PTH,ComponentDrill
T5C0.813
; #@! TA.AperFunction,Plated,PTH,ComponentDrill
T6C1.000
; #@! TA.AperFunction,Plated,PTH,ComponentDrill
T7C1.200
%
G90
G05
T1
X6.1Y-42.7
X25.2Y-43.5
X44.2Y-38.2
X63.3Y-38.6
T3
X88.9Y-20.836
X89.649Y-19.7
T5
X7.501Y-22.622
X7.501Y-25.598
X7.501Y-60.722
X7.501Y-63.698
X15.121Y-22.622
X15.121Y-25.598
X15.121Y-60.722
X15.121Y-63.698
X26.551Y-22.622
X26.551Y-25.598
X26.551Y-60.722
X26.551Y-63.698
X34.171Y-22.622
X34.171Y-25.598
X34.171Y-60.722
X34.171Y-63.698
X45.601Y-17.859
X45.601Y-20.836
X45.601Y-55.959
X45.601Y-58.936
X53.221Y-17.859
X53.221Y-20.836
X53.221Y-55.959
X53.221Y-58.936
X59.293Y-17.859
X59.293Y-20.836
X64.651Y-55.959
X64.651Y-58.936
X66.913Y-17.859
X66.913Y-20.836
X72.271Y-55.959
X72.271Y-58.936
X72.39Y-17.859
X72.39Y-20.836
X80.01Y-17.859
X80.01Y-20.836
X83.701Y-55.959
X83.701Y-58.936
X91.321Y-55.959
X91.321Y-58.936
X101.56Y-17.859
X101.56Y-20.836
X102.751Y-55.959
X102.751Y-58.936
X109.18Y-17.859
X109.18Y-20.836
X110.371Y-55.959
X110.371Y-58.936
T6
X97.155Y-3.096
X97.155Y-5.636
X97.155Y-8.176
X97.155Y-10.716
X97.155Y-13.256
X97.155Y-15.796
X97.155Y-18.336
X112.395Y-3.096
X112.395Y-5.636
X112.395Y-8.176
X112.395Y-10.716
X112.395Y-13.256
X112.395Y-15.796
X112.395Y-18.336
T7
X5.715Y-30.798
X5.715Y-49.848
X5.715Y-68.898
X5.715Y-11.748
X6.985Y-28.258
X6.985Y-47.308
X6.985Y-66.358
X6.985Y-9.208
X12.065Y-28.258
X12.065Y-47.308
X12.065Y-66.358
X12.065Y-9.208
X13.335Y-30.798
X13.335Y-49.848
X13.335Y-68.898
X13.335Y-11.748
X24.765Y-11.748
X24.765Y-30.798
X24.765Y-49.848
X24.765Y-68.898
X26.035Y-9.208
X26.035Y-28.258
X26.035Y-47.308
X26.035Y-66.358
X31.115Y-9.208
X31.115Y-28.258
X31.115Y-47.308
X31.115Y-66.358
X32.385Y-11.748
X32.385Y-30.798
X32.385Y-49.848
X32.385Y-68.898
X43.815Y-6.985
X43.815Y-26.035
X43.815Y-45.085
X43.815Y-64.135
X45.085Y-4.445
X45.085Y-23.495
X45.085Y-42.545
X45.085Y-61.595
X50.165Y-4.445
X50.165Y-23.495
X50.165Y-42.545
X50.165Y-61.595
X51.435Y-6.985
X51.435Y-26.035
X51.435Y-45.085
X51.435Y-64.135
X62.865Y-6.985
X62.865Y-26.035
X62.865Y-45.085
X62.865Y-64.135
X64.135Y-4.445
X64.135Y-23.495
X64.135Y-42.545
X64.135Y-61.595
X69.215Y-4.445
X69.215Y-23.495
X69.215Y-42.545
X69.215Y-61.595
X70.485Y-6.985
X70.485Y-26.035
X70.485Y-45.085
X70.485Y-64.135
X73.3Y-4.953
X73.95Y-12.453
X78.45Y-12.453
X79.1Y-4.953
X81.915Y-6.985
X81.915Y-26.035
X81.915Y-45.085
X81.915Y-64.135
X83.185Y-4.445
X83.185Y-23.495
X83.185Y-42.545
X83.185Y-61.595
X88.265Y-4.445
X88.265Y-23.495
X88.265Y-42.545
X88.265Y-61.595
X89.535Y-6.985
X89.535Y-26.035
X89.535Y-45.085
X89.535Y-64.135
X100.965Y-45.085
X100.965Y-64.135
X100.965Y-6.985
X100.965Y-26.035
X102.235Y-42.545
X102.235Y-61.595
X102.235Y-4.445
X102.235Y-23.495
X107.315Y-42.545
X107.315Y-61.595
X107.315Y-4.445
X107.315Y-23.495
X108.585Y-45.085
X108.585Y-64.135
X108.585Y-6.985
X108.585Y-26.035
T2
G00X47.275Y-72.575
M15
G01X47.975Y-72.575
M16
G05
G00X66.325Y-72.575
M15
G01X67.025Y-72.575
M16
G05
G00X85.375Y-72.575
M15
G01X86.075Y-72.575
M16
G05
G00X104.425Y-72.575
M15
G01X105.125Y-72.575
M16
G05
T4
G00X42.225Y-70.575
M15
G01X42.825Y-70.575
M16
G05
G00X52.425Y-70.575
M15
G01X53.025Y-70.575
M16
G05
G00X61.275Y-70.575
M15
G01X61.875Y-70.575
M16
G05
G00X71.475Y-70.575
M15
G01X72.075Y-70.575
M16
G05
G00X80.325Y-70.575
M15
G01X80.925Y-70.575
M16
G05
G00X90.525Y-70.575
M15
G01X91.125Y-70.575
M16
G05
G00X99.375Y-70.575
M15
G01X99.975Y-70.575
M16
G05
G00X109.575Y-70.575
M15
G01X110.175Y-70.575
M16
G05
T0
M30
