%TF.GenerationSoftware,KiCad,Pcbnew,7.0.1*%
%TF.CreationDate,2025-02-28T04:26:42+09:00*%
%TF.ProjectId,bonyo4xs,626f6e79-6f34-4787-932e-6b696361645f,rev?*%
%TF.SameCoordinates,Original*%
%TF.FileFunction,Legend,Bot*%
%TF.FilePolarity,Positive*%
%FSLAX46Y46*%
G04 Gerber Fmt 4.6, Leading zero omitted, Abs format (unit mm)*
G04 Created by KiCad (PCBNEW 7.0.1) date 2025-02-28 04:26:42*
%MOMM*%
%LPD*%
G01*
G04 APERTURE LIST*
%ADD10C,0.150000*%
%ADD11C,0.120000*%
%ADD12R,1.397000X1.397000*%
%ADD13C,1.397000*%
G04 APERTURE END LIST*
D10*
X74700000Y-10100000D02*
X77700000Y-10100000D01*
X77700000Y-11500000D01*
X74700000Y-11500000D01*
X74700000Y-10100000D01*
X74700000Y-5900000D02*
X77700000Y-5900000D01*
X77700000Y-7300000D01*
X74700000Y-7300000D01*
X74700000Y-5900000D01*
X33300000Y-7400000D02*
G75*
G03*
X34300000Y-8400000I1000000J0D01*
G01*
X55700000Y-2000000D02*
X58700000Y-2000000D01*
X58700000Y-3400000D01*
X55700000Y-3400000D01*
X55700000Y-2000000D01*
X33300000Y-7400000D02*
X33300000Y-4228122D01*
X34300000Y-3228100D02*
G75*
G03*
X33300000Y-4228122I0J-1000000D01*
G01*
X39899978Y-4228122D02*
G75*
G03*
X38900000Y-3228122I-999978J22D01*
G01*
X55700000Y-5400000D02*
X58700000Y-5400000D01*
X58700000Y-6800000D01*
X55700000Y-6800000D01*
X55700000Y-5400000D01*
X111300000Y-2000000D02*
X113500000Y-2000000D01*
X113500000Y-19500000D01*
X111300000Y-19500000D01*
X111300000Y-2000000D01*
X55700000Y-3700000D02*
X58700000Y-3700000D01*
X58700000Y-5100000D01*
X55700000Y-5100000D01*
X55700000Y-3700000D01*
X55700000Y-7100000D02*
X58700000Y-7100000D01*
X58700000Y-8500000D01*
X55700000Y-8500000D01*
X55700000Y-7100000D01*
X74700000Y-8000000D02*
X77700000Y-8000000D01*
X77700000Y-9400000D01*
X74700000Y-9400000D01*
X74700000Y-8000000D01*
X39900000Y-4228122D02*
X39900000Y-7400000D01*
X34300000Y-3228122D02*
X38900000Y-3228122D01*
X96000000Y-1950000D02*
X98200000Y-1950000D01*
X98200000Y-19450000D01*
X96000000Y-19450000D01*
X96000000Y-1950000D01*
X38900000Y-8400000D02*
G75*
G03*
X39900000Y-7400000I0J1000000D01*
G01*
X38900000Y-8400000D02*
X34300000Y-8400000D01*
X11333332Y-4400476D02*
X10142856Y-4400476D01*
X10999999Y-4733809D02*
X10238094Y-4733809D01*
X11142856Y-5257619D02*
X10142856Y-5257619D01*
X10619047Y-4733809D02*
X10619047Y-5257619D01*
X10904761Y-4162380D02*
X10999999Y-4686190D01*
X10999999Y-4686190D02*
X11190475Y-5019523D01*
X11190475Y-5019523D02*
X11380951Y-5210000D01*
X9809523Y-4495714D02*
X8761904Y-4495714D01*
X9904761Y-4829047D02*
X8666666Y-4829047D01*
X8857142Y-4162380D02*
X9333333Y-4257619D01*
X9333333Y-4257619D02*
X9761904Y-4305238D01*
X9285714Y-4257619D02*
X9285714Y-5305238D01*
X9285714Y-5305238D02*
X9571428Y-5305238D01*
X16261903Y-5877619D02*
X15833332Y-5877619D01*
X15833332Y-5877619D02*
X15880951Y-6163333D01*
X15880951Y-6163333D02*
X15976189Y-6353809D01*
X15976189Y-6353809D02*
X16071427Y-6496666D01*
X16071427Y-6496666D02*
X16166665Y-6639523D01*
X16166665Y-6639523D02*
X16309522Y-6782380D01*
X15976189Y-6401428D02*
X15880951Y-6544285D01*
X15880951Y-6544285D02*
X15738094Y-6782380D01*
X14928570Y-6163333D02*
X14928570Y-6877619D01*
X14690475Y-5830000D02*
X14785713Y-5972857D01*
X14785713Y-5972857D02*
X14928570Y-6163333D01*
X14928570Y-6163333D02*
X15119046Y-6306190D01*
X15119046Y-6306190D02*
X15261903Y-6401428D01*
X14166665Y-6163333D02*
X14071427Y-6401428D01*
X13928570Y-6115714D02*
X13880951Y-6353809D01*
X13642856Y-6163333D02*
X13642856Y-6401428D01*
X13642856Y-6401428D02*
X13690475Y-6544285D01*
X13690475Y-6544285D02*
X13833332Y-6687142D01*
X13833332Y-6687142D02*
X13976189Y-6782380D01*
X13166665Y-6258571D02*
X12499999Y-6258571D01*
X12642856Y-5830000D02*
X12738094Y-5877619D01*
X12738094Y-5877619D02*
X12880951Y-5925238D01*
X12880951Y-5925238D02*
X13071427Y-5972857D01*
X12785713Y-5925238D02*
X12785713Y-6210952D01*
X12785713Y-6210952D02*
X12833332Y-6401428D01*
X12833332Y-6401428D02*
X12880951Y-6591904D01*
X12880951Y-6591904D02*
X12928570Y-6687142D01*
X12928570Y-6687142D02*
X13071427Y-6830000D01*
X11880951Y-6020476D02*
X11499999Y-6020476D01*
X11642856Y-5830000D02*
X11642856Y-6782380D01*
X11642856Y-6782380D02*
X11880951Y-6734761D01*
X11880951Y-6734761D02*
X11880951Y-6544285D01*
X11880951Y-6544285D02*
X11738094Y-6496666D01*
X11738094Y-6496666D02*
X11499999Y-6687142D01*
X12071427Y-5830000D02*
X12119046Y-6115714D01*
X12119046Y-6115714D02*
X12119046Y-6401428D01*
X12119046Y-6401428D02*
X12071427Y-6782380D01*
X12071427Y-6782380D02*
X12023808Y-6449047D01*
X10738094Y-5830000D02*
X11023808Y-6877619D01*
X11023808Y-6877619D02*
X10785713Y-6401428D01*
X10785713Y-6401428D02*
X10690475Y-6401428D01*
X10690475Y-6401428D02*
X10595237Y-6877619D01*
X10595237Y-6877619D02*
X10547618Y-6877619D01*
X10547618Y-6877619D02*
X10404761Y-6639523D01*
X10023808Y-6020476D02*
X9690475Y-6020476D01*
X9785713Y-5782380D02*
X10023808Y-6782380D01*
X9738094Y-6258571D02*
X9452380Y-6258571D01*
X9785713Y-6544285D02*
X9690475Y-6782380D01*
X9690475Y-6782380D02*
X9404761Y-6782380D01*
X9499999Y-5925238D02*
X9404761Y-6068095D01*
X9357142Y-5877619D02*
X9261904Y-6020476D01*
X8499999Y-6210952D02*
X7928570Y-6210952D01*
X9071427Y-6877619D02*
X7833332Y-6877619D01*
X8499999Y-5782380D02*
X8499999Y-6877619D01*
X7595237Y-5830000D02*
X6357142Y-5830000D01*
X7214285Y-6353809D02*
X6738095Y-6353809D01*
X7214285Y-6591904D02*
X6738095Y-6591904D01*
X7499999Y-6830000D02*
X6452380Y-6830000D01*
X7499999Y-6115714D02*
X7499999Y-6877619D01*
X7214285Y-6115714D02*
X7214285Y-6830000D01*
X6738095Y-6115714D02*
X6738095Y-6830000D01*
X7499999Y-6115714D02*
X6452380Y-6115714D01*
X6452380Y-6115714D02*
X6452380Y-6877619D01*
X6976190Y-5830000D02*
X7071428Y-6068095D01*
X6071428Y-6877619D02*
X5547619Y-6210952D01*
X6071428Y-6210952D02*
X5547619Y-6877619D01*
X5214285Y-5972857D02*
X5166666Y-5925238D01*
X5166666Y-5925238D02*
X5071428Y-5877619D01*
X5071428Y-5877619D02*
X4833333Y-5877619D01*
X4833333Y-5877619D02*
X4738095Y-5925238D01*
X4738095Y-5925238D02*
X4690476Y-5972857D01*
X4690476Y-5972857D02*
X4642857Y-6068095D01*
X4642857Y-6068095D02*
X4642857Y-6163333D01*
X4642857Y-6163333D02*
X4690476Y-6306190D01*
X4690476Y-6306190D02*
X5261904Y-6877619D01*
X5261904Y-6877619D02*
X4642857Y-6877619D01*
X3785714Y-6210952D02*
X3785714Y-6877619D01*
X4023809Y-5830000D02*
X4261904Y-6544285D01*
X4261904Y-6544285D02*
X3642857Y-6544285D01*
X106233332Y-700476D02*
X105042856Y-700476D01*
X105947618Y-1510000D02*
X105138094Y-1510000D01*
X105947618Y-986190D02*
X105947618Y-1557619D01*
X105995237Y-1033809D02*
X105138094Y-1033809D01*
X105138094Y-1033809D02*
X105138094Y-1557619D01*
X105947618Y-938571D02*
X106280951Y-1271904D01*
X105709523Y-510000D02*
X105995237Y-1033809D01*
X104709523Y-795714D02*
X103661904Y-795714D01*
X104804761Y-1129047D02*
X103566666Y-1129047D01*
X103757142Y-462380D02*
X104233333Y-557619D01*
X104233333Y-557619D02*
X104661904Y-605238D01*
X104185714Y-557619D02*
X104185714Y-1605238D01*
X104185714Y-1605238D02*
X104471428Y-1605238D01*
X109804760Y-2177619D02*
X109709522Y-2463333D01*
X109280951Y-2177619D02*
X109280951Y-2463333D01*
X109280951Y-2463333D02*
X109328570Y-2653809D01*
X109328570Y-2653809D02*
X109376189Y-2796666D01*
X109376189Y-2796666D02*
X109471427Y-2939523D01*
X109471427Y-2939523D02*
X109709522Y-3082380D01*
X108661903Y-2415714D02*
X108138094Y-2415714D01*
X108614284Y-2082380D02*
X108661903Y-2272857D01*
X108661903Y-2272857D02*
X108757141Y-2510952D01*
X108757141Y-2510952D02*
X108804760Y-2653809D01*
X108376189Y-2415714D02*
X108376189Y-2653809D01*
X108376189Y-2653809D02*
X108423808Y-2796666D01*
X108423808Y-2796666D02*
X108519046Y-2939523D01*
X108519046Y-2939523D02*
X108661903Y-3130000D01*
X107709522Y-2463333D02*
X107614284Y-2701428D01*
X107471427Y-2415714D02*
X107423808Y-2653809D01*
X107185713Y-2463333D02*
X107185713Y-2701428D01*
X107185713Y-2701428D02*
X107233332Y-2844285D01*
X107233332Y-2844285D02*
X107376189Y-2987142D01*
X107376189Y-2987142D02*
X107519046Y-3082380D01*
X106376189Y-2082380D02*
X106376189Y-3130000D01*
X106376189Y-2510952D02*
X106090475Y-2749047D01*
X105423808Y-2320476D02*
X105042856Y-2320476D01*
X105185713Y-2130000D02*
X105185713Y-3082380D01*
X105185713Y-3082380D02*
X105423808Y-3034761D01*
X105423808Y-3034761D02*
X105423808Y-2844285D01*
X105423808Y-2844285D02*
X105280951Y-2796666D01*
X105280951Y-2796666D02*
X105042856Y-2987142D01*
X105614284Y-2130000D02*
X105661903Y-2415714D01*
X105661903Y-2415714D02*
X105661903Y-2701428D01*
X105661903Y-2701428D02*
X105614284Y-3082380D01*
X105614284Y-3082380D02*
X105566665Y-2749047D01*
X104280951Y-2130000D02*
X104566665Y-3177619D01*
X104566665Y-3177619D02*
X104328570Y-2701428D01*
X104328570Y-2701428D02*
X104233332Y-2701428D01*
X104233332Y-2701428D02*
X104138094Y-3177619D01*
X104138094Y-3177619D02*
X104090475Y-3177619D01*
X104090475Y-3177619D02*
X103947618Y-2939523D01*
X103566665Y-2320476D02*
X103233332Y-2320476D01*
X103328570Y-2082380D02*
X103566665Y-3082380D01*
X103280951Y-2558571D02*
X102995237Y-2558571D01*
X103328570Y-2844285D02*
X103233332Y-3082380D01*
X103233332Y-3082380D02*
X102947618Y-3082380D01*
X103042856Y-2225238D02*
X102947618Y-2368095D01*
X102899999Y-2177619D02*
X102804761Y-2320476D01*
X102042856Y-2510952D02*
X101471427Y-2510952D01*
X102614284Y-3177619D02*
X101376189Y-3177619D01*
X102042856Y-2082380D02*
X102042856Y-3177619D01*
X101138094Y-2130000D02*
X99899999Y-2130000D01*
X100757142Y-2653809D02*
X100280952Y-2653809D01*
X100757142Y-2891904D02*
X100280952Y-2891904D01*
X101042856Y-3130000D02*
X99995237Y-3130000D01*
X101042856Y-2415714D02*
X101042856Y-3177619D01*
X100757142Y-2415714D02*
X100757142Y-3130000D01*
X100280952Y-2415714D02*
X100280952Y-3130000D01*
X101042856Y-2415714D02*
X99995237Y-2415714D01*
X99995237Y-2415714D02*
X99995237Y-3177619D01*
X100519047Y-2130000D02*
X100614285Y-2368095D01*
X39157142Y-3780476D02*
X37966666Y-3780476D01*
X38823809Y-4113809D02*
X38061904Y-4113809D01*
X38966666Y-4637619D02*
X37966666Y-4637619D01*
X38442857Y-4113809D02*
X38442857Y-4637619D01*
X38728571Y-3542380D02*
X38823809Y-4066190D01*
X38823809Y-4066190D02*
X39014285Y-4399523D01*
X39014285Y-4399523D02*
X39204761Y-4590000D01*
X37347619Y-4113809D02*
X37252381Y-4113809D01*
X37252381Y-4113809D02*
X37204762Y-4161428D01*
X37204762Y-4161428D02*
X37204762Y-4256666D01*
X37204762Y-4256666D02*
X37252381Y-4304285D01*
X37252381Y-4304285D02*
X37347619Y-4304285D01*
X37347619Y-4304285D02*
X37395238Y-4256666D01*
X37395238Y-4256666D02*
X37395238Y-4161428D01*
X37395238Y-4161428D02*
X37347619Y-4113809D01*
X36680952Y-3590000D02*
X35442857Y-3590000D01*
X36109524Y-3590000D02*
X36109524Y-4637619D01*
X36109524Y-3875714D02*
X35538095Y-4161428D01*
X35204762Y-3590000D02*
X33966667Y-3590000D01*
X34823810Y-4113809D02*
X34347620Y-4113809D01*
X34823810Y-4351904D02*
X34347620Y-4351904D01*
X35109524Y-4590000D02*
X34061905Y-4590000D01*
X35109524Y-3875714D02*
X35109524Y-4637619D01*
X34823810Y-3875714D02*
X34823810Y-4590000D01*
X34347620Y-3875714D02*
X34347620Y-4590000D01*
X35109524Y-3875714D02*
X34061905Y-3875714D01*
X34061905Y-3875714D02*
X34061905Y-4637619D01*
X34585715Y-3590000D02*
X34680953Y-3828095D01*
X39157142Y-7020476D02*
X37966666Y-7020476D01*
X38871428Y-7830000D02*
X38061904Y-7830000D01*
X38871428Y-7306190D02*
X38871428Y-7877619D01*
X38919047Y-7353809D02*
X38061904Y-7353809D01*
X38061904Y-7353809D02*
X38061904Y-7877619D01*
X38871428Y-7258571D02*
X39204761Y-7591904D01*
X38633333Y-6830000D02*
X38919047Y-7353809D01*
X37347619Y-7353809D02*
X37252381Y-7353809D01*
X37252381Y-7353809D02*
X37204762Y-7401428D01*
X37204762Y-7401428D02*
X37204762Y-7496666D01*
X37204762Y-7496666D02*
X37252381Y-7544285D01*
X37252381Y-7544285D02*
X37347619Y-7544285D01*
X37347619Y-7544285D02*
X37395238Y-7496666D01*
X37395238Y-7496666D02*
X37395238Y-7401428D01*
X37395238Y-7401428D02*
X37347619Y-7353809D01*
X36109524Y-7210952D02*
X35538095Y-7210952D01*
X36680952Y-7877619D02*
X35442857Y-7877619D01*
X36109524Y-6782380D02*
X36109524Y-7877619D01*
X35204762Y-6830000D02*
X33966667Y-6830000D01*
X34823810Y-7353809D02*
X34347620Y-7353809D01*
X34823810Y-7591904D02*
X34347620Y-7591904D01*
X35109524Y-7830000D02*
X34061905Y-7830000D01*
X35109524Y-7115714D02*
X35109524Y-7877619D01*
X34823810Y-7115714D02*
X34823810Y-7830000D01*
X34347620Y-7115714D02*
X34347620Y-7830000D01*
X35109524Y-7115714D02*
X34061905Y-7115714D01*
X34061905Y-7115714D02*
X34061905Y-7877619D01*
X34585715Y-6830000D02*
X34680953Y-7068095D01*
X77533332Y-13700476D02*
X76342856Y-13700476D01*
X77247618Y-14510000D02*
X76438094Y-14510000D01*
X77247618Y-13986190D02*
X77247618Y-14557619D01*
X77295237Y-14033809D02*
X76438094Y-14033809D01*
X76438094Y-14033809D02*
X76438094Y-14557619D01*
X77247618Y-13938571D02*
X77580951Y-14271904D01*
X77009523Y-13510000D02*
X77295237Y-14033809D01*
X76009523Y-13795714D02*
X74961904Y-13795714D01*
X76104761Y-14129047D02*
X74866666Y-14129047D01*
X75057142Y-13462380D02*
X75533333Y-13557619D01*
X75533333Y-13557619D02*
X75961904Y-13605238D01*
X75485714Y-13557619D02*
X75485714Y-14605238D01*
X75485714Y-14605238D02*
X75771428Y-14605238D01*
X78890475Y-15510952D02*
X78890475Y-16368095D01*
X78890475Y-16368095D02*
X78938094Y-16463333D01*
X78938094Y-16463333D02*
X79033332Y-16510952D01*
X79033332Y-16510952D02*
X79080951Y-16510952D01*
X78890475Y-15177619D02*
X78938094Y-15225238D01*
X78938094Y-15225238D02*
X78890475Y-15272857D01*
X78890475Y-15272857D02*
X78842856Y-15225238D01*
X78842856Y-15225238D02*
X78890475Y-15177619D01*
X78890475Y-15177619D02*
X78890475Y-15272857D01*
X78414285Y-16177619D02*
X78414285Y-15510952D01*
X78414285Y-15606190D02*
X78366666Y-15558571D01*
X78366666Y-15558571D02*
X78271428Y-15510952D01*
X78271428Y-15510952D02*
X78128571Y-15510952D01*
X78128571Y-15510952D02*
X78033333Y-15558571D01*
X78033333Y-15558571D02*
X77985714Y-15653809D01*
X77985714Y-15653809D02*
X77985714Y-16177619D01*
X77985714Y-15653809D02*
X77938095Y-15558571D01*
X77938095Y-15558571D02*
X77842857Y-15510952D01*
X77842857Y-15510952D02*
X77700000Y-15510952D01*
X77700000Y-15510952D02*
X77604761Y-15558571D01*
X77604761Y-15558571D02*
X77557142Y-15653809D01*
X77557142Y-15653809D02*
X77557142Y-16177619D01*
X77080952Y-15510952D02*
X77080952Y-16510952D01*
X77080952Y-15558571D02*
X76985714Y-15510952D01*
X76985714Y-15510952D02*
X76795238Y-15510952D01*
X76795238Y-15510952D02*
X76700000Y-15558571D01*
X76700000Y-15558571D02*
X76652381Y-15606190D01*
X76652381Y-15606190D02*
X76604762Y-15701428D01*
X76604762Y-15701428D02*
X76604762Y-15987142D01*
X76604762Y-15987142D02*
X76652381Y-16082380D01*
X76652381Y-16082380D02*
X76700000Y-16130000D01*
X76700000Y-16130000D02*
X76795238Y-16177619D01*
X76795238Y-16177619D02*
X76985714Y-16177619D01*
X76985714Y-16177619D02*
X77080952Y-16130000D01*
X75652381Y-16177619D02*
X76223809Y-16177619D01*
X75938095Y-16177619D02*
X75938095Y-15177619D01*
X75938095Y-15177619D02*
X76033333Y-15320476D01*
X76033333Y-15320476D02*
X76128571Y-15415714D01*
X76128571Y-15415714D02*
X76223809Y-15463333D01*
X75223809Y-15796666D02*
X74461905Y-15796666D01*
X74080952Y-15177619D02*
X73461905Y-15177619D01*
X73461905Y-15177619D02*
X73795238Y-15558571D01*
X73795238Y-15558571D02*
X73652381Y-15558571D01*
X73652381Y-15558571D02*
X73557143Y-15606190D01*
X73557143Y-15606190D02*
X73509524Y-15653809D01*
X73509524Y-15653809D02*
X73461905Y-15749047D01*
X73461905Y-15749047D02*
X73461905Y-15987142D01*
X73461905Y-15987142D02*
X73509524Y-16082380D01*
X73509524Y-16082380D02*
X73557143Y-16130000D01*
X73557143Y-16130000D02*
X73652381Y-16177619D01*
X73652381Y-16177619D02*
X73938095Y-16177619D01*
X73938095Y-16177619D02*
X74033333Y-16130000D01*
X74033333Y-16130000D02*
X74080952Y-16082380D01*
X58533332Y-9100476D02*
X57342856Y-9100476D01*
X58247618Y-9910000D02*
X57438094Y-9910000D01*
X58247618Y-9386190D02*
X58247618Y-9957619D01*
X58295237Y-9433809D02*
X57438094Y-9433809D01*
X57438094Y-9433809D02*
X57438094Y-9957619D01*
X58247618Y-9338571D02*
X58580951Y-9671904D01*
X58009523Y-8910000D02*
X58295237Y-9433809D01*
X57009523Y-9195714D02*
X55961904Y-9195714D01*
X57104761Y-9529047D02*
X55866666Y-9529047D01*
X56057142Y-8862380D02*
X56533333Y-8957619D01*
X56533333Y-8957619D02*
X56961904Y-9005238D01*
X56485714Y-8957619D02*
X56485714Y-10005238D01*
X56485714Y-10005238D02*
X56771428Y-10005238D01*
X59890475Y-10910952D02*
X59890475Y-11768095D01*
X59890475Y-11768095D02*
X59938094Y-11863333D01*
X59938094Y-11863333D02*
X60033332Y-11910952D01*
X60033332Y-11910952D02*
X60080951Y-11910952D01*
X59890475Y-10577619D02*
X59938094Y-10625238D01*
X59938094Y-10625238D02*
X59890475Y-10672857D01*
X59890475Y-10672857D02*
X59842856Y-10625238D01*
X59842856Y-10625238D02*
X59890475Y-10577619D01*
X59890475Y-10577619D02*
X59890475Y-10672857D01*
X59414285Y-11577619D02*
X59414285Y-10910952D01*
X59414285Y-11006190D02*
X59366666Y-10958571D01*
X59366666Y-10958571D02*
X59271428Y-10910952D01*
X59271428Y-10910952D02*
X59128571Y-10910952D01*
X59128571Y-10910952D02*
X59033333Y-10958571D01*
X59033333Y-10958571D02*
X58985714Y-11053809D01*
X58985714Y-11053809D02*
X58985714Y-11577619D01*
X58985714Y-11053809D02*
X58938095Y-10958571D01*
X58938095Y-10958571D02*
X58842857Y-10910952D01*
X58842857Y-10910952D02*
X58700000Y-10910952D01*
X58700000Y-10910952D02*
X58604761Y-10958571D01*
X58604761Y-10958571D02*
X58557142Y-11053809D01*
X58557142Y-11053809D02*
X58557142Y-11577619D01*
X58080952Y-10910952D02*
X58080952Y-11910952D01*
X58080952Y-10958571D02*
X57985714Y-10910952D01*
X57985714Y-10910952D02*
X57795238Y-10910952D01*
X57795238Y-10910952D02*
X57700000Y-10958571D01*
X57700000Y-10958571D02*
X57652381Y-11006190D01*
X57652381Y-11006190D02*
X57604762Y-11101428D01*
X57604762Y-11101428D02*
X57604762Y-11387142D01*
X57604762Y-11387142D02*
X57652381Y-11482380D01*
X57652381Y-11482380D02*
X57700000Y-11530000D01*
X57700000Y-11530000D02*
X57795238Y-11577619D01*
X57795238Y-11577619D02*
X57985714Y-11577619D01*
X57985714Y-11577619D02*
X58080952Y-11530000D01*
X56747619Y-10910952D02*
X56747619Y-11577619D01*
X56985714Y-10530000D02*
X57223809Y-11244285D01*
X57223809Y-11244285D02*
X56604762Y-11244285D01*
X56223809Y-11196666D02*
X55461905Y-11196666D01*
X55080952Y-10577619D02*
X54414286Y-10577619D01*
X54414286Y-10577619D02*
X54842857Y-11577619D01*
X77533332Y-1100476D02*
X76342856Y-1100476D01*
X77247618Y-1910000D02*
X76438094Y-1910000D01*
X77247618Y-1386190D02*
X77247618Y-1957619D01*
X77295237Y-1433809D02*
X76438094Y-1433809D01*
X76438094Y-1433809D02*
X76438094Y-1957619D01*
X77247618Y-1338571D02*
X77580951Y-1671904D01*
X77009523Y-910000D02*
X77295237Y-1433809D01*
X76009523Y-1195714D02*
X74961904Y-1195714D01*
X76104761Y-1529047D02*
X74866666Y-1529047D01*
X75057142Y-862380D02*
X75533333Y-957619D01*
X75533333Y-957619D02*
X75961904Y-1005238D01*
X75485714Y-957619D02*
X75485714Y-2005238D01*
X75485714Y-2005238D02*
X75771428Y-2005238D01*
X80152380Y-2910952D02*
X79771428Y-2910952D01*
X80009523Y-2577619D02*
X80009523Y-3434761D01*
X80009523Y-3434761D02*
X79961904Y-3530000D01*
X79961904Y-3530000D02*
X79866666Y-3577619D01*
X79866666Y-3577619D02*
X79771428Y-3577619D01*
X79438094Y-3577619D02*
X79438094Y-2910952D01*
X79438094Y-3101428D02*
X79390475Y-3006190D01*
X79390475Y-3006190D02*
X79342856Y-2958571D01*
X79342856Y-2958571D02*
X79247618Y-2910952D01*
X79247618Y-2910952D02*
X79152380Y-2910952D01*
X78866665Y-3530000D02*
X78771427Y-3577619D01*
X78771427Y-3577619D02*
X78580951Y-3577619D01*
X78580951Y-3577619D02*
X78485713Y-3530000D01*
X78485713Y-3530000D02*
X78438094Y-3434761D01*
X78438094Y-3434761D02*
X78438094Y-3387142D01*
X78438094Y-3387142D02*
X78485713Y-3291904D01*
X78485713Y-3291904D02*
X78580951Y-3244285D01*
X78580951Y-3244285D02*
X78723808Y-3244285D01*
X78723808Y-3244285D02*
X78819046Y-3196666D01*
X78819046Y-3196666D02*
X78866665Y-3101428D01*
X78866665Y-3101428D02*
X78866665Y-3053809D01*
X78866665Y-3053809D02*
X78819046Y-2958571D01*
X78819046Y-2958571D02*
X78723808Y-2910952D01*
X78723808Y-2910952D02*
X78580951Y-2910952D01*
X78580951Y-2910952D02*
X78485713Y-2958571D01*
X77819046Y-2720476D02*
X77438094Y-2720476D01*
X77580951Y-2530000D02*
X77580951Y-3482380D01*
X77580951Y-3482380D02*
X77819046Y-3434761D01*
X77819046Y-3434761D02*
X77819046Y-3244285D01*
X77819046Y-3244285D02*
X77676189Y-3196666D01*
X77676189Y-3196666D02*
X77438094Y-3387142D01*
X78009522Y-2530000D02*
X78057141Y-2815714D01*
X78057141Y-2815714D02*
X78057141Y-3101428D01*
X78057141Y-3101428D02*
X78009522Y-3482380D01*
X78009522Y-3482380D02*
X77961903Y-3149047D01*
X76676189Y-2530000D02*
X76961903Y-3577619D01*
X76961903Y-3577619D02*
X76723808Y-3101428D01*
X76723808Y-3101428D02*
X76628570Y-3101428D01*
X76628570Y-3101428D02*
X76533332Y-3577619D01*
X76533332Y-3577619D02*
X76485713Y-3577619D01*
X76485713Y-3577619D02*
X76342856Y-3339523D01*
X75961903Y-2720476D02*
X75628570Y-2720476D01*
X75723808Y-2482380D02*
X75961903Y-3482380D01*
X75676189Y-2958571D02*
X75390475Y-2958571D01*
X75723808Y-3244285D02*
X75628570Y-3482380D01*
X75628570Y-3482380D02*
X75342856Y-3482380D01*
X75438094Y-2625238D02*
X75342856Y-2768095D01*
X75295237Y-2577619D02*
X75199999Y-2720476D01*
X74438094Y-2910952D02*
X73866665Y-2910952D01*
X75009522Y-3577619D02*
X73771427Y-3577619D01*
X74438094Y-2482380D02*
X74438094Y-3577619D01*
X73533332Y-2530000D02*
X72295237Y-2530000D01*
X73152380Y-3053809D02*
X72676190Y-3053809D01*
X73152380Y-3291904D02*
X72676190Y-3291904D01*
X73438094Y-3530000D02*
X72390475Y-3530000D01*
X73438094Y-2815714D02*
X73438094Y-3577619D01*
X73152380Y-2815714D02*
X73152380Y-3530000D01*
X72676190Y-2815714D02*
X72676190Y-3530000D01*
X73438094Y-2815714D02*
X72390475Y-2815714D01*
X72390475Y-2815714D02*
X72390475Y-3577619D01*
X72914285Y-2530000D02*
X73009523Y-2768095D01*
%TO.C,D20*%
X27660963Y-62948491D02*
X33060963Y-62948491D01*
X27660963Y-64448491D02*
X27660963Y-62948491D01*
X29860963Y-64198491D02*
X29860963Y-63198491D01*
X29960963Y-63698491D02*
X30860963Y-64198491D01*
X30860963Y-63198491D02*
X29960963Y-63698491D01*
X30860963Y-64198491D02*
X30860963Y-63198491D01*
X33060963Y-62948491D02*
X33060963Y-64448491D01*
X33060963Y-64448491D02*
X27660963Y-64448491D01*
%TO.C,D13*%
X8610947Y-59971926D02*
X14010947Y-59971926D01*
X8610947Y-61471926D02*
X8610947Y-59971926D01*
X10810947Y-61221926D02*
X10810947Y-60221926D01*
X10910947Y-60721926D02*
X11810947Y-61221926D01*
X11810947Y-60221926D02*
X10910947Y-60721926D01*
X11810947Y-61221926D02*
X11810947Y-60221926D01*
X14010947Y-59971926D02*
X14010947Y-61471926D01*
X14010947Y-61471926D02*
X8610947Y-61471926D01*
%TO.C,D21*%
X46710979Y-58185987D02*
X52110979Y-58185987D01*
X46710979Y-59685987D02*
X46710979Y-58185987D01*
X48910979Y-59435987D02*
X48910979Y-58435987D01*
X49010979Y-58935987D02*
X49910979Y-59435987D01*
X49910979Y-58435987D02*
X49010979Y-58935987D01*
X49910979Y-59435987D02*
X49910979Y-58435987D01*
X52110979Y-58185987D02*
X52110979Y-59685987D01*
X52110979Y-59685987D02*
X46710979Y-59685987D01*
%TO.C,D16*%
X65760995Y-55209422D02*
X71160995Y-55209422D01*
X65760995Y-56709422D02*
X65760995Y-55209422D01*
X67960995Y-56459422D02*
X67960995Y-55459422D01*
X68060995Y-55959422D02*
X68960995Y-56459422D01*
X68960995Y-55459422D02*
X68060995Y-55959422D01*
X68960995Y-56459422D02*
X68960995Y-55459422D01*
X71160995Y-55209422D02*
X71160995Y-56709422D01*
X71160995Y-56709422D02*
X65760995Y-56709422D01*
%TO.C,D15*%
X46710979Y-55209422D02*
X52110979Y-55209422D01*
X46710979Y-56709422D02*
X46710979Y-55209422D01*
X48910979Y-56459422D02*
X48910979Y-55459422D01*
X49010979Y-55959422D02*
X49910979Y-56459422D01*
X49910979Y-55459422D02*
X49010979Y-55959422D01*
X49910979Y-56459422D02*
X49910979Y-55459422D01*
X52110979Y-55209422D02*
X52110979Y-56709422D01*
X52110979Y-56709422D02*
X46710979Y-56709422D01*
%TO.C,D12*%
X102670401Y-20085955D02*
X108070401Y-20085955D01*
X102670401Y-21585955D02*
X102670401Y-20085955D01*
X104870401Y-21335955D02*
X104870401Y-20335955D01*
X104970401Y-20835955D02*
X105870401Y-21335955D01*
X105870401Y-20335955D02*
X104970401Y-20835955D01*
X105870401Y-21335955D02*
X105870401Y-20335955D01*
X108070401Y-20085955D02*
X108070401Y-21585955D01*
X108070401Y-21585955D02*
X102670401Y-21585955D01*
%TO.C,D3*%
X46710979Y-17109382D02*
X52110979Y-17109382D01*
X46710979Y-18609382D02*
X46710979Y-17109382D01*
X48910979Y-18359382D02*
X48910979Y-17359382D01*
X49010979Y-17859382D02*
X49910979Y-18359382D01*
X49910979Y-17359382D02*
X49010979Y-17859382D01*
X49910979Y-18359382D02*
X49910979Y-17359382D01*
X52110979Y-17109382D02*
X52110979Y-18609382D01*
X52110979Y-18609382D02*
X46710979Y-18609382D01*
%TO.C,D11*%
X73500064Y-20085955D02*
X78900064Y-20085955D01*
X73500064Y-21585955D02*
X73500064Y-20085955D01*
X75700064Y-21335955D02*
X75700064Y-20335955D01*
X75800064Y-20835955D02*
X76700064Y-21335955D01*
X76700064Y-20335955D02*
X75800064Y-20835955D01*
X76700064Y-21335955D02*
X76700064Y-20335955D01*
X78900064Y-20085955D02*
X78900064Y-21585955D01*
X78900064Y-21585955D02*
X73500064Y-21585955D01*
%TO.C,D4*%
X60403178Y-17109390D02*
X65803178Y-17109390D01*
X60403178Y-18609390D02*
X60403178Y-17109390D01*
X62603178Y-18359390D02*
X62603178Y-17359390D01*
X62703178Y-17859390D02*
X63603178Y-18359390D01*
X63603178Y-17359390D02*
X62703178Y-17859390D01*
X63603178Y-18359390D02*
X63603178Y-17359390D01*
X65803178Y-17109390D02*
X65803178Y-18609390D01*
X65803178Y-18609390D02*
X60403178Y-18609390D01*
%TO.C,D23*%
X84811011Y-58185987D02*
X90211011Y-58185987D01*
X84811011Y-59685987D02*
X84811011Y-58185987D01*
X87011011Y-59435987D02*
X87011011Y-58435987D01*
X87111011Y-58935987D02*
X88011011Y-59435987D01*
X88011011Y-58435987D02*
X87111011Y-58935987D01*
X88011011Y-59435987D02*
X88011011Y-58435987D01*
X90211011Y-58185987D02*
X90211011Y-59685987D01*
X90211011Y-59685987D02*
X84811011Y-59685987D01*
%TO.C,D8*%
X27660963Y-24848459D02*
X33060963Y-24848459D01*
X27660963Y-26348459D02*
X27660963Y-24848459D01*
X29860963Y-26098459D02*
X29860963Y-25098459D01*
X29960963Y-25598459D02*
X30860963Y-26098459D01*
X30860963Y-25098459D02*
X29960963Y-25598459D01*
X30860963Y-26098459D02*
X30860963Y-25098459D01*
X33060963Y-24848459D02*
X33060963Y-26348459D01*
X33060963Y-26348459D02*
X27660963Y-26348459D01*
%TO.C,D5*%
X73500064Y-17109390D02*
X78900064Y-17109390D01*
X73500064Y-18609390D02*
X73500064Y-17109390D01*
X75700064Y-18359390D02*
X75700064Y-17359390D01*
X75800064Y-17859390D02*
X76700064Y-18359390D01*
X76700064Y-17359390D02*
X75800064Y-17859390D01*
X76700064Y-18359390D02*
X76700064Y-17359390D01*
X78900064Y-17109390D02*
X78900064Y-18609390D01*
X78900064Y-18609390D02*
X73500064Y-18609390D01*
%TO.C,D7*%
X8610947Y-24848459D02*
X14010947Y-24848459D01*
X8610947Y-26348459D02*
X8610947Y-24848459D01*
X10810947Y-26098459D02*
X10810947Y-25098459D01*
X10910947Y-25598459D02*
X11810947Y-26098459D01*
X11810947Y-25098459D02*
X10910947Y-25598459D01*
X11810947Y-26098459D02*
X11810947Y-25098459D01*
X14010947Y-24848459D02*
X14010947Y-26348459D01*
X14010947Y-26348459D02*
X8610947Y-26348459D01*
D11*
%TO.C,J1*%
X78900056Y-303122D02*
X78900056Y-1253122D01*
X73500056Y-303122D02*
X73500056Y-1253122D01*
X79650056Y-1253122D02*
X78900056Y-1253122D01*
X79650056Y-1253122D02*
X79650056Y-2203122D01*
X73500056Y-1253122D02*
X72750056Y-1253122D01*
X73500056Y-1253122D02*
X72750056Y-1253122D01*
X72750056Y-1253122D02*
X72750056Y-2203122D01*
X75150056Y-13153122D02*
X77250056Y-13153122D01*
D10*
%TO.C,D24*%
X103861027Y-58185987D02*
X109261027Y-58185987D01*
X103861027Y-59685987D02*
X103861027Y-58185987D01*
X106061027Y-59435987D02*
X106061027Y-58435987D01*
X106161027Y-58935987D02*
X107061027Y-59435987D01*
X107061027Y-58435987D02*
X106161027Y-58935987D01*
X107061027Y-59435987D02*
X107061027Y-58435987D01*
X109261027Y-58185987D02*
X109261027Y-59685987D01*
X109261027Y-59685987D02*
X103861027Y-59685987D01*
%TO.C,D10*%
X60403178Y-20085955D02*
X65803178Y-20085955D01*
X60403178Y-21585955D02*
X60403178Y-20085955D01*
X62603178Y-21335955D02*
X62603178Y-20335955D01*
X62703178Y-20835955D02*
X63603178Y-21335955D01*
X63603178Y-20335955D02*
X62703178Y-20835955D01*
X63603178Y-21335955D02*
X63603178Y-20335955D01*
X65803178Y-20085955D02*
X65803178Y-21585955D01*
X65803178Y-21585955D02*
X60403178Y-21585955D01*
%TO.C,D6*%
X102670401Y-17109382D02*
X108070401Y-17109382D01*
X102670401Y-18609382D02*
X102670401Y-17109382D01*
X104870401Y-18359382D02*
X104870401Y-17359382D01*
X104970401Y-17859382D02*
X105870401Y-18359382D01*
X105870401Y-17359382D02*
X104970401Y-17859382D01*
X105870401Y-18359382D02*
X105870401Y-17359382D01*
X108070401Y-17109382D02*
X108070401Y-18609382D01*
X108070401Y-18609382D02*
X102670401Y-18609382D01*
%TO.C,D14*%
X27660963Y-59971918D02*
X33060963Y-59971918D01*
X27660963Y-61471918D02*
X27660963Y-59971918D01*
X29860963Y-61221918D02*
X29860963Y-60221918D01*
X29960963Y-60721918D02*
X30860963Y-61221918D01*
X30860963Y-60221918D02*
X29960963Y-60721918D01*
X30860963Y-61221918D02*
X30860963Y-60221918D01*
X33060963Y-59971918D02*
X33060963Y-61471918D01*
X33060963Y-61471918D02*
X27660963Y-61471918D01*
%TO.C,D17*%
X84811011Y-55209422D02*
X90211011Y-55209422D01*
X84811011Y-56709422D02*
X84811011Y-55209422D01*
X87011011Y-56459422D02*
X87011011Y-55459422D01*
X87111011Y-55959422D02*
X88011011Y-56459422D01*
X88011011Y-55459422D02*
X87111011Y-55959422D01*
X88011011Y-56459422D02*
X88011011Y-55459422D01*
X90211011Y-55209422D02*
X90211011Y-56709422D01*
X90211011Y-56709422D02*
X84811011Y-56709422D01*
%TO.C,D2*%
X27660963Y-21871894D02*
X33060963Y-21871894D01*
X27660963Y-23371894D02*
X27660963Y-21871894D01*
X29860963Y-23121894D02*
X29860963Y-22121894D01*
X29960963Y-22621894D02*
X30860963Y-23121894D01*
X30860963Y-22121894D02*
X29960963Y-22621894D01*
X30860963Y-23121894D02*
X30860963Y-22121894D01*
X33060963Y-21871894D02*
X33060963Y-23371894D01*
X33060963Y-23371894D02*
X27660963Y-23371894D01*
%TO.C,D9*%
X46710979Y-20085955D02*
X52110979Y-20085955D01*
X46710979Y-21585955D02*
X46710979Y-20085955D01*
X48910979Y-21335955D02*
X48910979Y-20335955D01*
X49010979Y-20835955D02*
X49910979Y-21335955D01*
X49910979Y-20335955D02*
X49010979Y-20835955D01*
X49910979Y-21335955D02*
X49910979Y-20335955D01*
X52110979Y-20085955D02*
X52110979Y-21585955D01*
X52110979Y-21585955D02*
X46710979Y-21585955D01*
%TO.C,D18*%
X103861027Y-55209414D02*
X109261027Y-55209414D01*
X103861027Y-56709414D02*
X103861027Y-55209414D01*
X106061027Y-56459414D02*
X106061027Y-55459414D01*
X106161027Y-55959414D02*
X107061027Y-56459414D01*
X107061027Y-55459414D02*
X106161027Y-55959414D01*
X107061027Y-56459414D02*
X107061027Y-55459414D01*
X109261027Y-55209414D02*
X109261027Y-56709414D01*
X109261027Y-56709414D02*
X103861027Y-56709414D01*
%TO.C,D22*%
X65760995Y-58185987D02*
X71160995Y-58185987D01*
X65760995Y-59685987D02*
X65760995Y-58185987D01*
X67960995Y-59435987D02*
X67960995Y-58435987D01*
X68060995Y-58935987D02*
X68960995Y-59435987D01*
X68960995Y-58435987D02*
X68060995Y-58935987D01*
X68960995Y-59435987D02*
X68960995Y-58435987D01*
X71160995Y-58185987D02*
X71160995Y-59685987D01*
X71160995Y-59685987D02*
X65760995Y-59685987D01*
%TO.C,D1*%
X8610947Y-21871894D02*
X14010947Y-21871894D01*
X8610947Y-23371894D02*
X8610947Y-21871894D01*
X10810947Y-23121894D02*
X10810947Y-22121894D01*
X10910947Y-22621894D02*
X11810947Y-23121894D01*
X11810947Y-22121894D02*
X10910947Y-22621894D01*
X11810947Y-23121894D02*
X11810947Y-22121894D01*
X14010947Y-21871894D02*
X14010947Y-23371894D01*
X14010947Y-23371894D02*
X8610947Y-23371894D01*
%TO.C,D19*%
X8610947Y-62948491D02*
X14010947Y-62948491D01*
X8610947Y-64448491D02*
X8610947Y-62948491D01*
X10810947Y-64198491D02*
X10810947Y-63198491D01*
X10910947Y-63698491D02*
X11810947Y-64198491D01*
X11810947Y-63198491D02*
X10910947Y-63698491D01*
X11810947Y-64198491D02*
X11810947Y-63198491D01*
X14010947Y-62948491D02*
X14010947Y-64448491D01*
X14010947Y-64448491D02*
X8610947Y-64448491D01*
%TD*%
D12*
%TO.C,D20*%
X26550963Y-63698491D03*
D13*
X34170963Y-63698491D03*
%TD*%
D12*
%TO.C,D13*%
X7500947Y-60721926D03*
D13*
X15120947Y-60721926D03*
%TD*%
D12*
%TO.C,D21*%
X45600979Y-58935987D03*
D13*
X53220979Y-58935987D03*
%TD*%
D12*
%TO.C,D16*%
X64650995Y-55959422D03*
D13*
X72270995Y-55959422D03*
%TD*%
D12*
%TO.C,D15*%
X45600979Y-55959422D03*
D13*
X53220979Y-55959422D03*
%TD*%
D12*
%TO.C,D12*%
X101560401Y-20835955D03*
D13*
X109180401Y-20835955D03*
%TD*%
D12*
%TO.C,D3*%
X45600979Y-17859382D03*
D13*
X53220979Y-17859382D03*
%TD*%
D12*
%TO.C,D11*%
X72390064Y-20835955D03*
D13*
X80010064Y-20835955D03*
%TD*%
D12*
%TO.C,D4*%
X59293178Y-17859390D03*
D13*
X66913178Y-17859390D03*
%TD*%
D12*
%TO.C,D23*%
X83701011Y-58935987D03*
D13*
X91321011Y-58935987D03*
%TD*%
D12*
%TO.C,D8*%
X26550963Y-25598459D03*
D13*
X34170963Y-25598459D03*
%TD*%
D12*
%TO.C,D5*%
X72390064Y-17859390D03*
D13*
X80010064Y-17859390D03*
%TD*%
D12*
%TO.C,D7*%
X7500947Y-25598459D03*
D13*
X15120947Y-25598459D03*
%TD*%
D12*
%TO.C,D24*%
X102751027Y-58935987D03*
D13*
X110371027Y-58935987D03*
%TD*%
D12*
%TO.C,D10*%
X59293178Y-20835955D03*
D13*
X66913178Y-20835955D03*
%TD*%
D12*
%TO.C,D6*%
X101560401Y-17859382D03*
D13*
X109180401Y-17859382D03*
%TD*%
D12*
%TO.C,D14*%
X26550963Y-60721918D03*
D13*
X34170963Y-60721918D03*
%TD*%
D12*
%TO.C,D17*%
X83701011Y-55959422D03*
D13*
X91321011Y-55959422D03*
%TD*%
D12*
%TO.C,D2*%
X26550963Y-22621894D03*
D13*
X34170963Y-22621894D03*
%TD*%
D12*
%TO.C,D9*%
X45600979Y-20835955D03*
D13*
X53220979Y-20835955D03*
%TD*%
D12*
%TO.C,D18*%
X102751027Y-55959414D03*
D13*
X110371027Y-55959414D03*
%TD*%
D12*
%TO.C,D22*%
X64650995Y-58935987D03*
D13*
X72270995Y-58935987D03*
%TD*%
D12*
%TO.C,D1*%
X7500947Y-22621894D03*
D13*
X15120947Y-22621894D03*
%TD*%
D12*
%TO.C,D19*%
X7500947Y-63698491D03*
D13*
X15120947Y-63698491D03*
%TD*%
M02*
