M48
; DRILL file {KiCad 7.0.1} date Fri Feb 28 04:26:54 2025
; FORMAT={-:-/ absolute / metric / decimal}
; #@! TF.CreationDate,2025-02-28T04:26:54+09:00
; #@! TF.GenerationSoftware,Kicad,Pcbnew,7.0.1
; #@! TF.FileFunction,NonPlated,1,2,NPTH
FMAT,2
METRIC
; #@! TA.AperFunction,NonPlated,NPTH,ComponentDrill
T1C1.000
; #@! TA.AperFunction,NonPlated,NPTH,ComponentDrill
T2C1.800
; #@! TA.AperFunction,NonPlated,NPTH,ComponentDrill
T3C4.900
%
G90
G05
T1
X73.7Y-8.453
X78.7Y-8.453
T3
X9.525Y-33.338
X9.525Y-52.388
X9.525Y-71.438
X9.525Y-14.288
X28.575Y-14.288
X28.575Y-33.338
X28.575Y-52.388
X28.575Y-71.438
X47.625Y-9.525
X47.625Y-28.575
X47.625Y-47.625
X47.625Y-66.675
X66.675Y-9.525
X66.675Y-28.575
X66.675Y-47.625
X66.675Y-66.675
X85.725Y-9.525
X85.725Y-28.575
X85.725Y-47.625
X85.725Y-66.675
X104.775Y-47.625
X104.775Y-66.675
X104.775Y-9.525
X104.775Y-28.575
T2
G00X4.025Y-33.338
M15
G01X4.395Y-33.338
M16
G05
G00X4.025Y-52.388
M15
G01X4.395Y-52.388
M16
G05
G00X4.025Y-71.438
M15
G01X4.395Y-71.438
M16
G05
G00X4.025Y-14.288
M15
G01X4.395Y-14.288
M16
G05
G00X14.655Y-33.338
M15
G01X15.025Y-33.338
M16
G05
G00X14.655Y-52.388
M15
G01X15.025Y-52.388
M16
G05
G00X14.655Y-71.438
M15
G01X15.025Y-71.438
M16
G05
G00X14.655Y-14.288
M15
G01X15.025Y-14.288
M16
G05
G00X23.075Y-14.288
M15
G01X23.445Y-14.288
M16
G05
G00X23.075Y-33.338
M15
G01X23.445Y-33.338
M16
G05
G00X23.075Y-52.388
M15
G01X23.445Y-52.388
M16
G05
G00X23.075Y-71.438
M15
G01X23.445Y-71.438
M16
G05
G00X33.705Y-14.288
M15
G01X34.075Y-14.288
M16
G05
G00X33.705Y-33.338
M15
G01X34.075Y-33.338
M16
G05
G00X33.705Y-52.388
M15
G01X34.075Y-52.388
M16
G05
G00X33.705Y-71.438
M15
G01X34.075Y-71.438
M16
G05
G00X42.125Y-9.525
M15
G01X42.495Y-9.525
M16
G05
G00X42.125Y-28.575
M15
G01X42.495Y-28.575
M16
G05
G00X42.125Y-47.625
M15
G01X42.495Y-47.625
M16
G05
G00X42.125Y-66.675
M15
G01X42.495Y-66.675
M16
G05
G00X52.755Y-9.525
M15
G01X53.125Y-9.525
M16
G05
G00X52.755Y-28.575
M15
G01X53.125Y-28.575
M16
G05
G00X52.755Y-47.625
M15
G01X53.125Y-47.625
M16
G05
G00X52.755Y-66.675
M15
G01X53.125Y-66.675
M16
G05
G00X61.175Y-9.525
M15
G01X61.545Y-9.525
M16
G05
G00X61.175Y-28.575
M15
G01X61.545Y-28.575
M16
G05
G00X61.175Y-47.625
M15
G01X61.545Y-47.625
M16
G05
G00X61.175Y-66.675
M15
G01X61.545Y-66.675
M16
G05
G00X71.805Y-9.525
M15
G01X72.175Y-9.525
M16
G05
G00X71.805Y-28.575
M15
G01X72.175Y-28.575
M16
G05
G00X71.805Y-47.625
M15
G01X72.175Y-47.625
M16
G05
G00X71.805Y-66.675
M15
G01X72.175Y-66.675
M16
G05
G00X80.225Y-9.525
M15
G01X80.595Y-9.525
M16
G05
G00X80.225Y-28.575
M15
G01X80.595Y-28.575
M16
G05
G00X80.225Y-47.625
M15
G01X80.595Y-47.625
M16
G05
G00X80.225Y-66.675
M15
G01X80.595Y-66.675
M16
G05
G00X90.855Y-9.525
M15
G01X91.225Y-9.525
M16
G05
G00X90.855Y-28.575
M15
G01X91.225Y-28.575
M16
G05
G00X90.855Y-47.625
M15
G01X91.225Y-47.625
M16
G05
G00X90.855Y-66.675
M15
G01X91.225Y-66.675
M16
G05
G00X99.275Y-47.625
M15
G01X99.645Y-47.625
M16
G05
G00X99.275Y-66.675
M15
G01X99.645Y-66.675
M16
G05
G00X99.275Y-9.525
M15
G01X99.645Y-9.525
M16
G05
G00X99.275Y-28.575
M15
G01X99.645Y-28.575
M16
G05
G00X109.905Y-47.625
M15
G01X110.275Y-47.625
M16
G05
G00X109.905Y-66.675
M15
G01X110.275Y-66.675
M16
G05
G00X109.905Y-9.525
M15
G01X110.275Y-9.525
M16
G05
G00X109.905Y-28.575
M15
G01X110.275Y-28.575
M16
G05
T0
M30
